# xmcd
#
# Track frame offsets: 
#        150
#        14635
#        28790
#        46020
#        57828
#        70509
#        86138
#        102677
#        117297
#        140845
#        157785
#        172734
#        188422
#        206747
#        225298
#
# Disc length: 3283 seconds
#
# Revision: 3
# Processed by: cddbd v1.5.2PL0 Copyright (c) Steve Scherf et al.
# Submitted via: ExactAudioCopy v1.0b3
#
DISCID=be0cd10f
DTITLE=Toby Keith - Clancy's Tavern
DYEAR=2011
DGENRE=Country
TTITLE0=Made In America
TTITLE1=I Need To Hear A Country Song
TTITLE2=Clancy's Tavern
TTITLE3=Tryin' To Fall In Love
TTITLE4=Just Another Sundown
TTITLE5=Beers Ago
TTITLE6=South Of You
TTITLE7=Club Zydeco Moon
TTITLE8=I Won't Let You Down
TTITLE9=Red Solo Cup
TTITLE10=Chill-axin'
TTITLE11=High Time (You Quit Your Low Down Ways) [Live]
TTITLE12=Truck Drivin' Man [Live]
TTITLE13=Shambala [Live]
TTITLE14=Memphis [Live]
EXTD=
EXTT0=
EXTT1=
EXTT2=
EXTT3=
EXTT4=
EXTT5=
EXTT6=
EXTT7=
EXTT8=
EXTT9=
EXTT10=
EXTT11=
EXTT12=
EXTT13=
EXTT14=
PLAYORDER=
